<svg xmlns="http://www.w3.org/2000/svg" width="32.143" height="22" viewBox="0 0 32.143 22">
  <g id="delivery" transform="translate(-0.36 -2.437)">
    <rect id="Rectangle_30" data-name="Rectangle 30" width="13.748" height="0.963" rx="0.21" transform="translate(0.402 11.651)" fill="#ecc815"/>
    <rect id="Rectangle_31" data-name="Rectangle 31" width="7.533" height="0.963" rx="0.21" transform="translate(3.499 13.701)" fill="#ecc815"/>
    <rect id="Rectangle_32" data-name="Rectangle 32" width="8.14" height="0.963" rx="0.21" transform="translate(0.36 15.731)" fill="#ecc815"/>
    <path id="Path_17" data-name="Path 17" d="M3.06,6.9,3.1,14.182l.921-.209.021-7.031Z" transform="translate(2.95 4.876)" fill="#ecc815"/>
    <path id="Path_18" data-name="Path 18" d="M2.34,13.455a2.888,2.888,0,0,1,.126-1.59,2.281,2.281,0,0,1,1.444-1.4,4.9,4.9,0,0,1,1.716-.251h15.59v1.025H4.977a1.632,1.632,0,0,0-1.339.628,1.758,1.758,0,0,0-.251.9H8.241l-.753.921H2.654a.5.5,0,0,1-.314-.23Z" transform="translate(2.1 8.491)" fill="#ecc815"/>
    <circle id="Ellipse_5" data-name="Ellipse 5" cx="0.816" cy="0.816" r="0.816" transform="translate(11.451 20.9)" fill="#ecc815"/>
    <circle id="Ellipse_6" data-name="Ellipse 6" cx="0.816" cy="0.816" r="0.816" transform="translate(26.789 20.879)" fill="#ecc815"/>
    <rect id="Rectangle_33" data-name="Rectangle 33" width="10.254" height="0.942" transform="translate(15.008 21.318)" fill="#ecc815"/>
    <rect id="Rectangle_34" data-name="Rectangle 34" width="0.984" height="12.576" transform="translate(22.374 9.035)" fill="#ecc815"/>
    <path id="Path_19" data-name="Path 19" d="M4.369,6.145,3.3,7.567a.419.419,0,0,0,0,.272A.565.565,0,0,0,3.49,8.2a.5.5,0,0,0,.753,0L5.436,6.563v-2.7a.5.5,0,0,0-.753-.293.586.586,0,0,0-.23.251Z" transform="translate(3.189 1.153)" fill="#ecc815"/>
    <path id="Path_20" data-name="Path 20" d="M6.27,4.4h7.68A2.678,2.678,0,0,1,16.9,6.909h-.984A2.239,2.239,0,0,0,15.77,6.3a1.318,1.318,0,0,0-1.276-.879H6.354Z" transform="translate(6.457 2.126)" fill="#ecc815"/>
    <path id="Path_21" data-name="Path 21" d="M11.394,7.856h4.185a2.741,2.741,0,0,1,1.946.732,33.627,33.627,0,0,1,2.051,2.762v5.064H18.362l-.188,1.025H19.89a.67.67,0,0,0,.523-.146.607.607,0,0,0,.126-.4c0-.753,0-5.566,0-5.566a.816.816,0,0,0-.209-.586c-.251-.314-1.695-2.532-1.695-2.532A4.708,4.708,0,0,0,17.19,7.165a2.951,2.951,0,0,0-1.465-.314H11.31Z" transform="translate(11.964 4.82)" fill="#ecc815"/>
    <path id="Path_22" data-name="Path 22" d="M13.584,11.15v.984h3.2a.9.9,0,0,0,.586-1.172L15.99,8.492a2.093,2.093,0,0,0-1.423-.942H13.124a.5.5,0,0,0-.523.419V11.61a.5.5,0,0,0,.1.335.8.8,0,0,0,.23.146h.67V8.555h.816s.4,0,.774.607l1.088,1.925Z" transform="translate(13.373 5.586)" fill="#ecc815"/>
    <path id="Path_23" data-name="Path 23" d="M6.47,3.448A3.892,3.892,0,0,1,8.9,4.222a4.185,4.185,0,0,1,1.59,2.323,4.185,4.185,0,0,1-.963,3.536A3.725,3.725,0,0,1,6.47,11.462,3.976,3.976,0,0,1,3.6,10.144a3.683,3.683,0,0,1-.942-3.578,4.185,4.185,0,0,1,1.695-2.49,4.185,4.185,0,0,1,2.093-.649L6.2,2.443a5.19,5.19,0,0,0-3.976,2.49,5.4,5.4,0,0,0-.565,3.557,4.813,4.813,0,0,0,2.3,3.181L8.9,11.86A4.918,4.918,0,0,0,10.99,9.537a5.4,5.4,0,0,0,.356-3.243,4.9,4.9,0,0,0-2.093-2.93,5.4,5.4,0,0,0-.5-.46,5.462,5.462,0,0,0-2.469-.46Z" transform="translate(1.319 0)" fill="#ecc815"/>
    <path id="Path_24" data-name="Path 24" d="M6.072,12.028a1.779,1.779,0,0,0-.314.691,2.218,2.218,0,0,0,.251,1.507l.377.356a2.093,2.093,0,0,0,1.151.377,1.59,1.59,0,0,0,.774-.209,1.925,1.925,0,0,0,.9-1.067,1.841,1.841,0,0,0,0-.711A2.093,2.093,0,0,0,8.792,11.8l-.314-.251A1.611,1.611,0,0,0,7.6,11.3V10.27a5.085,5.085,0,0,1,1.13.439,2.657,2.657,0,0,1,.963.628,2.7,2.7,0,0,1,.419.628.827.827,0,0,0,.146.544,3.474,3.474,0,0,1-.126,1.569,3.034,3.034,0,0,1-1.8,1.674,2.867,2.867,0,0,1-2.26-.251,2.658,2.658,0,0,1-.607-.46,3.034,3.034,0,0,1-.711-1.151,2.867,2.867,0,0,1,0-.335,2.427,2.427,0,0,1,0-.711A4.185,4.185,0,0,1,5.047,11.8a3.892,3.892,0,0,1,.439-.628l2.093-.711v.921a1.716,1.716,0,0,0-.544,0,1.883,1.883,0,0,0-.963.649Z" transform="translate(4.772 8.558)" fill="#ecc815"/>
    <path id="Path_25" data-name="Path 25" d="M13.423,11.965a1.779,1.779,0,0,0-.314.691,2.093,2.093,0,0,0,.272,1.507,1.444,1.444,0,0,0,.356.356,2.093,2.093,0,0,0,1.151.377,1.59,1.59,0,0,0,.774-.209,1.862,1.862,0,0,0,.9-1.067,2.281,2.281,0,0,0,0-.711,2.2,2.2,0,0,0-.439-1.109l-.314-.251a1.821,1.821,0,0,0-.879-.251V10.27a3.055,3.055,0,0,1,1.235.377,2.95,2.95,0,0,1,.858.691,2.323,2.323,0,0,1,.419.628,4.185,4.185,0,0,1,.146.544,3.474,3.474,0,0,1-.126,1.569,3.034,3.034,0,0,1-1.779,1.674A2.909,2.909,0,0,1,13.4,15.5a2.658,2.658,0,0,1-.607-.46,3.034,3.034,0,0,1-.711-1.318,2.406,2.406,0,0,1,0-.335,2.469,2.469,0,0,1,0-.711,3.662,3.662,0,0,1,.335-.963,2.637,2.637,0,0,1,.439-.607,2.365,2.365,0,0,1,1.025-.67,2.406,2.406,0,0,1,1.067-.146v1a2.888,2.888,0,0,0-.544,0A1.8,1.8,0,0,0,13.423,11.965Z" transform="translate(12.781 8.558)" fill="#ecc815"/>
  </g>
</svg>
